<svg xmlns="http://www.w3.org/2000/svg" width="117.425" height="142.996" viewBox="0 0 117.425 142.996">
  <g id="Group_2" data-name="Group 2" transform="translate(-95.227 -34.279)">
    <g id="Group_3" data-name="Group 3" transform="translate(-22 -16)">
      <g id="Group_2-2" data-name="Group 2" transform="translate(-4991 5776)">
        <path id="path324" d="M1054.549-876.858a14.328,14.328,0,0,1,2.163-1.713,36.842,36.842,0,0,0-4.9-2.155c-.641-.259-1.293-.469-1.949-.661a17.765,17.765,0,0,1,.375,2.3,16.222,16.222,0,0,1,4.313,2.232" transform="translate(4145 -4761.669)" fill="#040606"/>
        <path id="path326" d="M1018.424-895.511c1.439.076,2.865.184,4.268.337a35.827,35.827,0,0,1-4.572-1.627,14.25,14.25,0,0,1-4.151-.056,15.148,15.148,0,0,1-2.076-.495c-3.967.072-11.991.2-16.183,2.52a98.08,98.08,0,0,1,22.713-.68" transform="translate(4145 -4761.669)" fill="#040606"/>
        <path id="path328" d="M993.526-890.529c6.5,3.592,14.335,4.837,21.576,6.161,7.673,1.4,15.837,2.516,23.663,1.883a17.526,17.526,0,0,1-3.233-1.679c-7.453.228-15.323-1.139-22.285-2.549-3.335-.675-6.664-1.433-9.969-2.239-1.368-.335-6.529-1.3-6.909-2.24-.416-1.035.108-1.565.992-1.915-1.34.172-2.956-.859-4.281-.65a19.437,19.437,0,0,0,0,2.123,1.012,1.012,0,0,0,.448,1.1" transform="translate(4145 -4761.669)" fill="#040606"/>
        <path id="path330" d="M1047.5-882c.792.177,1.58.377,2.36.608a12.641,12.641,0,0,0-.476-1.531l-1.239-.6A4.249,4.249,0,0,1,1047.5-882" transform="translate(4145 -4761.669)" fill="#040606"/>
        <path id="path332" d="M1018.12-896.8a8.11,8.11,0,0,1-1.029-.595c-1.383-.023-2.759-.016-4.119.021-.311.008-.676.015-1.079.023a15.17,15.17,0,0,0,2.076.495,14.25,14.25,0,0,0,4.151.056" transform="translate(4145 -4761.669)" fill="#040606"/>
        <path id="path336" d="M1047.325-881.755a4.523,4.523,0,0,1,.665,1.948c.765.219,1.517.455,2.245.717a17.765,17.765,0,0,0-.375-2.3c-.78-.231-1.568-.431-2.36-.608l-.176.24" transform="translate(4145 -4761.669)" fill="#040606"/>
        <path id="path340" d="M1044.933-885.489a2.8,2.8,0,0,1,.048.447q1.588.758,3.165,1.523a3.91,3.91,0,0,0,.012-1.436,3.478,3.478,0,0,0-3.225-.533" transform="translate(4145 -4761.669)" fill="#040606"/>
        <path id="path342" d="M1044.933-885.489a3.478,3.478,0,0,1,3.225.533,4.806,4.806,0,0,0-.221-.832q-2.316-1.124-4.661-2.213a4.9,4.9,0,0,1,1.657,2.512" transform="translate(4145 -4761.669)" fill="#040606"/>
        <path id="path344" d="M1028.612-894.232c4.2.991,11.387,3.276,14.664,6.232q2.344,1.088,4.661,2.213c-.825-2.244-3.289-4.277-5.557-5.6a46.63,46.63,0,0,0-19-5.652c.439.144.861.288,1.24.445a14.772,14.772,0,0,1,4,2.361" transform="translate(4145 -4761.669)" fill="#040606"/>
        <path id="path346" d="M1054.549-876.858a10.643,10.643,0,0,1,1.749,1.651,8.747,8.747,0,0,1,.74-.756,15.474,15.474,0,0,1,1.539-1.169,8.319,8.319,0,0,0-1.865-1.439,14.333,14.333,0,0,0-2.163,1.713" transform="translate(4145 -4761.669)" fill="#040606"/>
        <path id="path348" d="M1044.461-883.27a4.137,4.137,0,0,1,2.6,1.177l.444.1a4.25,4.25,0,0,0,.645-1.524q-1.578-.766-3.165-1.523a3.029,3.029,0,0,1-.52,1.772" transform="translate(4145 -4761.669)" fill="#040606"/>
        <path id="path350" d="M1018.12-896.8a35.836,35.836,0,0,0,4.572,1.627c1.268.139,2.521.3,3.741.493.552.088,1.305.241,2.179.448a14.769,14.769,0,0,0-4-2.361c-.379-.157-.8-.3-1.24-.445q-1.554-.154-3.112-.243a12.294,12.294,0,0,1-2.144.481" transform="translate(4145 -4761.669)" fill="#040606"/>
        <path id="path352" d="M1044.461-883.27a4.764,4.764,0,0,1-.381.527c.991.228,1.985.433,2.977.651a4.137,4.137,0,0,0-2.6-1.177" transform="translate(4145 -4761.669)" fill="#040606"/>
        <path id="path354" d="M1039.751-882.555c-.328.033-.659.044-.987.071a34.446,34.446,0,0,0,3.635,1.2,8.582,8.582,0,0,0,1.681-1.46c-.547-.125-1.091-.256-1.631-.405-.936.207-1.949.519-2.7.593" transform="translate(4145 -4761.669)" fill="#040606"/>
        <path id="path356" d="M1030.557-892.32c.565.635,1.093,1.251,1.611,1.855a121.5,121.5,0,0,1,12.156,5.109c.207-.048.411-.092.609-.132a4.895,4.895,0,0,0-1.657-2.512,99.765,99.765,0,0,0-13.708-5.356c.328.323.656.661.989,1.036" transform="translate(4145 -4761.669)" fill="#040606"/>
        <path id="path358" d="M1050.843-884.376q-1.45-.7-2.905-1.411a4.806,4.806,0,0,1,.221.832,4.506,4.506,0,0,1,1.107,1.673l.12.364.471.228c1.125.548,2.117-1.137.987-1.687" transform="translate(4145 -4761.669)" fill="#040606"/>
        <path id="path362" d="M1028.068-891.743q2.07.576,4.1,1.277c-.517-.6-1.045-1.22-1.611-1.855-.333-.375-.661-.713-.989-1.036a57.79,57.79,0,0,0-5.732-1.392l.12.051a14.042,14.042,0,0,1,4.112,2.955" transform="translate(4145 -4761.669)" fill="#040606"/>
        <path id="path370" d="M996.772-839.2c9.537,3.764,19.423,7.664,29.244,10.62a36.846,36.846,0,0,0,4.467,1.056,39.631,39.631,0,0,0,4.849-1.812,40.5,40.5,0,0,1-13.053-2.589c-17.773-6.4-45.835-12.145-50.641-32.9.229,2.4.484,4.876.8,7.376,4.888,8.72,14.321,14.3,24.332,18.245" transform="translate(4145 -4761.669)" fill="#040606"/>
        <path id="path372" d="M1041.958-884.811c-.941.173-1.9.3-2.865.405a15.644,15.644,0,0,0,1.987.839q.68.23,1.371.419a5.543,5.543,0,0,1,1.6-.179c.148.013.277.037.416.057a3.029,3.029,0,0,0,.52-1.772l-.657-.315c-.743.175-1.531.392-2.367.545" transform="translate(4145 -4761.669)" fill="#040606"/>
        <path id="path374" d="M1022.759-892.982c1.8.316,3.561.752,5.309,1.239a14.044,14.044,0,0,0-4.112-2.955l-.12-.051c-.188-.035-.369-.085-.557-.117-1.608-.283-3.229-.481-4.855-.645-6.109-.32-13.194-1.54-18.816,0-.606.166-6.25,1.086-6.25,1.086s.334,1.7,0,1.835c8.4-1.072,21.1-1.85,29.4-.392" transform="translate(4145 -4761.669)" fill="#040606"/>
        <path id="path378" d="M1039.092-884.406c-1.173.127-2.361.205-3.561.243a17.519,17.519,0,0,0,3.233,1.679c.328-.027.659-.037.987-.071.749-.075,1.763-.387,2.7-.593q-.69-.19-1.371-.419a15.6,15.6,0,0,1-1.987-.839" transform="translate(4145 -4761.669)" fill="#040606"/>
        <path id="path380" d="M1032.168-890.466q-2.03-.7-4.1-1.277c2.307,2.289,4.081,5.064,6.856,7.155.2.148.4.288.607.425,1.2-.037,2.388-.116,3.561-.243-2.943-1.468-4.824-3.611-6.924-6.06" transform="translate(4145 -4761.669)" fill="#040606"/>
        <path id="path382" d="M1048.159-884.955a3.91,3.91,0,0,1-.012,1.436l1.239.6-.12-.364a4.506,4.506,0,0,0-1.107-1.673" transform="translate(4145 -4761.669)" fill="#040606"/>
        <path id="path384" d="M1020.264-897.282q-1.59-.088-3.173-.113a8.115,8.115,0,0,0,1.029.595,12.318,12.318,0,0,0,2.144-.481" transform="translate(4145 -4761.669)" fill="#040606"/>
        <path id="path386" d="M977.4-956.955c-.268-.229-.539-.459-.824-.684a12.581,12.581,0,0,0-2.753-1.952,5.913,5.913,0,0,1,3.577,2.636,21.18,21.18,0,0,1,3.04,3.191,12.61,12.61,0,0,0-.72-6.221c-1.795-4.525-5.952-5.121-9.712-2.544a1.007,1.007,0,0,0-.351,1.337c1.8,3.519,5.383,5.3,8.291,7.967a6.041,6.041,0,0,0-.548-3.729" transform="translate(4145 -4761.669)" fill="#040606"/>
        <path id="path388" d="M1035.332-829.331a39.616,39.616,0,0,1-4.849,1.812,30.414,30.414,0,0,0,5,.435,30.811,30.811,0,0,0,4.484-2.595,26.709,26.709,0,0,1-4.635.348" transform="translate(4145 -4761.669)" fill="#040606"/>
        <path id="path390" d="M979.934-951.068a20.756,20.756,0,0,0,.507-2.7,21.183,21.183,0,0,0-3.04-3.191,6.04,6.04,0,0,1,.548,3.729,15.462,15.462,0,0,1,1.985,2.157" transform="translate(4145 -4761.669)" fill="#040606"/>
        <path id="path392" d="M1006.888-902.151a3.245,3.245,0,0,0,1.117-1.288,15.636,15.636,0,0,1-.524-7.367c.032-2.912,1.6-10.135,1.1-15.491-1.072-2.373-3.112-3.575-4.483-5.877l-.844,1.469c2.891-.168,3.552,3.047,3.44,6.6a10.49,10.49,0,0,1,.483,5.065c-.295,2.295-.941,4.557-1.457,6.835.313,1.985.747,4.088.431,4.784l-1.152.809a10.249,10.249,0,0,0,1.177,4.827,3.424,3.424,0,0,0,.709-.364" transform="translate(4145 -4761.669)" fill="#040606"/>
        <path id="path394" d="M981.122-949.122c3.144,6.509,2.133,13.681,2.081,20.657-.081,11.076,4.873,19.677,14.892,24.943,1.984,1.041,5.62,2.695,8.084,1.735a10.249,10.249,0,0,1-1.177-4.827l-3.532,2.477a21.106,21.106,0,0,1-4.883-2.583,32.349,32.349,0,0,1-4.8-4.152,20.6,20.6,0,0,1-6.4-12.684c-1.383-10.833,1.619-21.645-4.952-30.209a20.789,20.789,0,0,1-.507,2.7,11.776,11.776,0,0,1,1.188,1.947" transform="translate(4145 -4761.669)" fill="#040606"/>
        <path id="path396" d="M1005.723-912.207a24.9,24.9,0,0,0-.731,5.279l.009.315,1.152-.809c.316-.7-.117-2.8-.431-4.784" transform="translate(4145 -4761.669)" fill="#040606"/>
        <path id="path398" d="M993.016-894.718c-2.253-3.293-1.944-6.379-2.316-10.048a7.011,7.011,0,0,0-2.483-5.039c-.947-.808-2.172-1.017-3.121-1.736-3.969-3.008-3.031-4.147-4.163-7.728-1.309-4.151-4.673-7.16-5.635-11.5-1.508-6.8,2.955-13.616,4.635-20.3a15.462,15.462,0,0,0-1.985-2.157,28.805,28.805,0,0,1-1.273,4.847c-1.129,3.645-2.612,7.212-3.229,11-1.1,6.757,1.587,10.363,4.559,16.1,1.32,2.551,1.067,5.557,2.315,8.024,1.3,2.569,3.548,2.284,5.3,4.12,3.173,3.333,1.739,7.676,2.735,11.409.587,2.2,1.5,2.128,2.653,3.567q1.066-.168,2.115-.319l-.1-.244" transform="translate(4145 -4761.669)" fill="#040606"/>
        <path id="path400" d="M1006.7-924.107a57.491,57.491,0,0,1-1.2,8.6,11.9,11.9,0,0,0,.224,3.3c.516-2.277,1.163-4.54,1.457-6.835a10.49,10.49,0,0,0-.483-5.065" transform="translate(4145 -4761.669)" fill="#040606"/>
        <path id="path404" d="M1020.872-825.171c-2.09.462-4.242.9-6.739,1.312-6.763,1.127-14.19,1.564-21.021-.237-14.764-3.893-18.835-18.952-20.672-33.344a26.63,26.63,0,0,1-2.739-7.084c.621,6.735,1.363,13.876,3.257,20.712a39.845,39.845,0,0,0,4.757,10.965,24.534,24.534,0,0,0,4.135,4.858c6.64,6.109,16.39,7.427,25.909,6.786,8.136-.548,19.228-1.849,27.724-5.881a30.426,30.426,0,0,1-5-.435c-3.359,1.029-6.781,1.723-9.611,2.348" transform="translate(4145 -4761.669)" fill="#040606"/>
        <path id="path406" d="M971.638-864.817a28.918,28.918,0,0,1-.708-7.328h-1.955c.261,2.439.485,5,.727,7.62a26.628,26.628,0,0,0,2.739,7.084c-.319-2.5-.573-4.977-.8-7.376" transform="translate(4145 -4761.669)" fill="#040606"/>
        <path id="path410" d="M1040.552-880.178c-2.991,1.543-7.251,1.672-10.568,2.153q-7.126,1.034-14.286,1.723c-8.052.767-16.155,1.489-24.243,1.7a122.842,122.842,0,0,1-13.713-.269,28.261,28.261,0,0,1-8.112-1.637c-4.469-1.788-5.251-3.345-1.275-6.952,6.5-5.9,16.491-7.728,24.905-9.064l.1-.015a5.239,5.239,0,0,1,2.352-2.293c-.173.023-.348.041-.521.064-.681.095-2.219-.165-2.916-.064.324.937.538-.1-.637.357-.112-.163-.527.452-.634.319-7.251,1.14-14.959,2.9-20.947,6.905-2.973,1.988-9.415,6.485-5.713,10.645,4.611,5.181,18.837,4.061,24.759,4a308.961,308.961,0,0,0,34.069-2.545c6.639-.805,17.188-.784,22.763-5.216-1.175-.3-2.363-.595-3.535-.921a17.1,17.1,0,0,1-1.847,1.105" transform="translate(4145 -4761.669)" fill="#040606"/>
        <path id="path412" d="M1046.313-880.654c-.12.1-.255.193-.38.292.693.179,1.38.361,2.057.555a4.522,4.522,0,0,0-.665-1.948,6.63,6.63,0,0,1-1.012,1.1" transform="translate(4145 -4761.669)" fill="#040606"/>
        <path id="path414" d="M1047.325-881.755l-.268-.337c-.992-.217-1.987-.423-2.977-.651a8.581,8.581,0,0,1-1.681,1.46c1.172.327,2.36.619,3.535.921.125-.1.26-.188.38-.292a6.635,6.635,0,0,0,1.012-1.1" transform="translate(4145 -4761.669)" fill="#040606"/>
        <path id="path416" d="M1043.011-832.2c2.768-2.775,3.432-5.919,3.764-9.7.781-8.924,1.845-17.6,2.96-26.487a48.81,48.81,0,0,0,.5-10.705c-.728-.263-1.48-.5-2.245-.717.132.964.113,2.037.164,3.111a57.585,57.585,0,0,1-1.079,12.521c-.689,4.039-1.435,7.959-1.752,12.048-.36,4.661.369,10.335-1.316,14.72-1.456,3.784-4.771,6.295-8.676,8.076a26.707,26.707,0,0,0,4.635-.348,22.717,22.717,0,0,0,3.044-2.519" transform="translate(4145 -4761.669)" fill="#040606"/>
        <path id="path418" d="M1054.549-876.858a8.4,8.4,0,0,0-2.339,9.368c1.443,3.924,3.813,7.3,4.716,11.5,1.275,5.928.788,12.807-2.952,17.752a21.393,21.393,0,0,1-14.008,8.555,30.816,30.816,0,0,1-4.484,2.595,24.309,24.309,0,0,0,13.44-3.828c5.512-3.527,9.245-8.492,10.229-14.985a29.649,29.649,0,0,0-.852-12.639c-1.516-5.344-6.5-11.68-2-16.671a10.641,10.641,0,0,0-1.749-1.651" transform="translate(4145 -4761.669)" fill="#040606"/>
        <path id="path420" d="M1021.143-928.812a21.166,21.166,0,0,0-3.541-4.749c-.424-.436-2.671-1.889-2.572-2.279l2.915-.7a13.633,13.633,0,0,1,2.856,5.123,10.01,10.01,0,0,1,.343,2.605,17.868,17.868,0,0,1,.927,1.98,20.082,20.082,0,0,1,.639,1.945c.939-4.895-.169-11.116-4.579-14.147-2.145-1.473-6.272-1.68-6.128,1.893.057,1.447,1.748,2.7,2.635,3.6a24.083,24.083,0,0,1,5.952,8.659,16.315,16.315,0,0,0,.555-3.935" transform="translate(4145 -4761.669)" fill="#040606"/>
        <path id="path422" d="M1003.258-930.7l.844-1.469c1.371,2.3,3.411,3.5,4.483,5.877-.349-3.743-1.709-6.572-5.327-6.361a.987.987,0,0,0-.843,1.469c1.6,2.683,3.383,4.592,4.283,7.081.112-3.551-.549-6.765-3.44-6.6" transform="translate(4145 -4761.669)" fill="#040606"/>
        <path id="path424" d="M1021.491-920.2c.015.308.053.6.052.917a16.526,16.526,0,0,1-.441,3.708,9.722,9.722,0,0,0,1.216,3.525,22.086,22.086,0,0,0,.391-12.841c-.037.193-.072.389-.115.579-.319,1.385-.764,2.74-1.1,4.112" transform="translate(4145 -4761.669)" fill="#040606"/>
        <path id="path426" d="M1058.577-877.133c5.657-3.828,14.139-4.235,18.139,1.983,3.693,5.741,1.88,14.059-2.519,18.763q-1.418,1.348-2.851,2.679l-8.216-1.949c-.087-.179,1.153-3.288,1.175-3.743.188-3.971-2.781-7.367-3.044-11.385a.987.987,0,0,0-1.471-.844c1.344-.867-.305-4.412-.883-5.152-.1-.123-.22-.233-.331-.351a15.5,15.5,0,0,0-1.539,1.169,8.72,8.72,0,0,0-.74.756,11.539,11.539,0,0,1,2.391,5.1.93.93,0,0,0,.759.673c-.059-.427-.109-.868-.143-1.355l1.472.844c-.217.14-.435.281-.653.421a.89.89,0,0,1-.676.089,33.274,33.274,0,0,0,1.571,5.8c1.131,3.616.675,5.507-.373,8.8-.276.864-.945,2-.655,2.973,1.284,4.3,8.491,2.623,11.027.952,9.073-5.979,14.363-21.648,3.771-28.951-4.5-3.1-12.739-2.193-18.076,1.284a8.322,8.322,0,0,1,1.865,1.439" transform="translate(4145 -4761.669)" fill="#040606"/>
        <path id="path428" d="M1021.646-909.027q3.32,4.13-2.731,9.912a7.779,7.779,0,0,0,2.471,1.4,7.184,7.184,0,0,0,4.143-4.564,7.418,7.418,0,0,0-.737-5.668c-.767-1.473-1.715-2.731-2.473-4.1a21.525,21.525,0,0,1-1.012,2.531l.34.488" transform="translate(4145 -4761.669)" fill="#040606"/>
        <path id="path430" d="M1060.124-869.521c.219-.14.436-.281.653-.421l-1.472-.844c.033.487.084.928.143,1.355a.89.89,0,0,0,.676-.089" transform="translate(4145 -4761.669)" fill="#040606"/>
        <path id="path432" d="M1022.594-924.308c.043-.189.077-.385.115-.579a20.1,20.1,0,0,0-.639-1.945,17.879,17.879,0,0,0-.927-1.98,16.315,16.315,0,0,1-.555,3.935,16.043,16.043,0,0,1,.9,4.681c.339-1.372.784-2.727,1.1-4.112" transform="translate(4145 -4761.669)" fill="#040606"/>
        <path id="path434" d="M1021.031-916.071a13.264,13.264,0,0,1,.46-4.125,16.047,16.047,0,0,0-.9-4.681,39.836,39.836,0,0,0-1.515,6.967,13.773,13.773,0,0,0,.925,5.679,20.492,20.492,0,0,0,1.1-3.339c-.02-.168-.057-.325-.071-.5" transform="translate(4145 -4761.669)" fill="#040606"/>
        <path id="path436" d="M1006.888-902.151a3.432,3.432,0,0,1-.709.364,9.508,9.508,0,0,0,5.715,4.436c.4-.008.768-.015,1.079-.023,1.36-.037,2.736-.044,4.119-.021a4.658,4.658,0,0,1-1.169-1.117c-2.208-.053-4.709-.691-5.924-1.791a7.654,7.654,0,0,1-1.992-3.136,3.245,3.245,0,0,1-1.117,1.288" transform="translate(4145 -4761.669)" fill="#040606"/>
        <path id="path438" d="M1007.482-910.806c.044-.295.084-.6.137-.872.392-2,.983-3.952,1.351-5.957a16.163,16.163,0,0,0-.057-7.84,7.373,7.373,0,0,0-.328-.821c.5,5.356-1.071,12.579-1.1,15.491" transform="translate(4145 -4761.669)" fill="#040606"/>
        <path id="path442" d="M1021.305-909.515a21.514,21.514,0,0,0,1.012-2.531,9.723,9.723,0,0,1-1.216-3.525,20.5,20.5,0,0,1-1.1,3.339c.208.593.44,1.195.684,1.821q.31.448.623.9" transform="translate(4145 -4761.669)" fill="#040606"/>
        <path id="path444" d="M1018.6-898.814l.315-.3a4.076,4.076,0,0,1-1.361-3.289c.031-1.871,2.817-5.189,3.708-7.005l.044-.105q-.312-.448-.623-.9c-.244-.627-.476-1.228-.684-1.821-1,2.377-2.316,4.621-3.48,7.183-.789,1.735-1.8,4.059-.924,5.984a3.484,3.484,0,0,0,.327.553,8.36,8.36,0,0,0,2.679-.3" transform="translate(4145 -4761.669)" fill="#040606"/>
        <path id="path446" d="M1017.091-897.4q1.582.028,3.173.113a10.218,10.218,0,0,0,1.121-.436,7.781,7.781,0,0,1-2.471-1.4l-.315.3a8.358,8.358,0,0,1-2.679.3,4.658,4.658,0,0,0,1.169,1.117" transform="translate(4145 -4761.669)" fill="#040606"/>
      </g>
    </g>
  </g>
</svg>
