<svg xmlns="http://www.w3.org/2000/svg" xmlns:xlink="http://www.w3.org/1999/xlink" width="464.19" height="309.461" viewBox="0 0 464.19 309.461">
  <defs>
    <clipPath id="clip-path">
      <path id="path3414" d="M1071.313-45.312H1535.5V-354.772h-464.19Z" transform="translate(146 -41)"/>
    </clipPath>
  </defs>
  <g id="Group_4" data-name="Group 4" transform="translate(-281.313 -30.892)">
    <g id="Group_3" data-name="Group 3" transform="translate(-1142 -331)">
      <g id="g3410" transform="translate(206 757.664)">
        <g id="g3412" clip-path="url(#clip-path)">
          <path id="path3418" d="M1535.5-45.312H1428.13c-2.387-4.816-4.68-9.674-7.027-14.513q-4.94-10.214-9.96-20.4l-10-20.5q-5.02-10.249-10.013-20.5l-9.96-20.393q-5-10.25-10.013-20.5t-10.013-20.5L1351.183-203q-5-10.25-10.013-20.5-4.96-10.2-9.951-20.392-5.032-10.3-10.067-20.6c-3.3-6.763-6.584-13.533-9.907-20.285q-5.64-11.466-11.336-22.9a12.492,12.492,0,0,0-1.785-2.645c-2.653-3.06-6.216-4.017-10.02-4.02q-36.764-.016-73.528-.021-36.724,0-73.441,0h-69.822v-40.4H1535.5V-45.312" transform="translate(146 -40)" fill="rgba(221,221,221,0.25)"/>
          <path id="path3420" d="M1428.13-45.312h-1.693c-.373-.754-.747-1.517-1.067-2.308-1.44-3.588-3.573-6.86-5.067-10.446-1.427-3.431-3.493-6.556-4.893-10.009-1.453-3.547-3.587-6.769-5.053-10.332-1.44-3.509-3.547-6.7-4.987-10.224-1.44-3.509-3.547-6.7-5-10.224-1.44-3.505-3.533-6.709-4.987-10.225s-3.533-6.708-5-10.224-3.533-6.709-4.987-10.225c-1.453-3.5-3.533-6.708-5-10.224s-3.52-6.711-4.987-10.224c-1.48-3.537-3.56-6.783-5.053-10.331-1.44-3.461-3.467-6.651-4.933-10.119-1.493-3.529-3.56-6.787-5.04-10.331-1.453-3.461-3.493-6.644-4.947-10.117-1.48-3.532-3.56-6.787-5.04-10.333-1.453-3.465-3.507-6.633-4.96-10.113-1.48-3.575-3.587-6.859-5.08-10.443-1.427-3.428-3.48-6.557-4.893-10.007-1.48-3.58-3.616-6.848-5.1-10.44-1.417-3.433-3.467-6.564-4.892-10.011-1.495-3.613-3.652-6.913-5.147-10.545-1.4-3.4-3.355-6.531-4.855-9.9-1.848-4.143-4.149-8.079-5.952-12.251-1.191-2.759-2.723-5.344-3.993-8.069-2.363-5.064-4.781-10.12-7.637-14.939a10.06,10.06,0,0,0-5.639-4.237,20.157,20.157,0,0,0-6.644-.779q-42.094-.006-84.18-.007H1071.313v-1.427h69.823q36.724,0,73.441,0,36.764.006,73.528.021c3.8,0,7.367.96,10.02,4.02a12.491,12.491,0,0,1,1.785,2.645q5.68,11.446,11.336,22.9c3.323,6.752,6.6,13.523,9.907,20.285q5.032,10.3,10.067,20.6,4.986,10.2,9.951,20.392,5.02,10.25,10.013,20.5l9.96,20.393q5,10.248,10.013,20.5t10.013,20.5l9.96,20.393q5,10.248,10.013,20.5l10,20.5q5,10.2,9.96,20.4c2.347,4.839,4.64,9.7,7.027,14.513" transform="translate(146 -40)" fill="#dedede"/>
          <path id="path3422" d="M1415.837-45.312h-1.213c-.6-1.351-1.2-2.705-1.907-4.009-1.787-3.336-3.36-6.8-5.013-10.2-1.693-3.443-3.36-6.885-5.053-10.328-1.653-3.406-3.253-6.852-5-10.209-1.773-3.367-3.187-6.895-4.96-10.257s-3.347-6.8-5.013-10.208l-5-10.233c-1.667-3.407-3.253-6.852-5.013-10.209s-3.107-6.932-4.973-10.245-3.2-6.883-4.973-10.245-3.36-6.809-5.027-10.221-3.253-6.861-5.013-10.223-3.107-6.932-4.973-10.247-3.2-6.883-4.987-10.244c-1.76-3.356-3.347-6.809-5.013-10.221l-5-10.233c-1.667-3.412-3.253-6.863-5.019-10.223-1.747-3.331-3.143-6.824-4.9-10.149-1.775-3.353-3.356-6.811-5.023-10.221s-3.261-6.859-5.017-10.224-3.111-6.929-4.973-10.245-3.153-6.908-4.995-10.236c-2.032-3.671-3.5-7.623-5.528-11.3-1.321-2.392-2.227-4.995-3.516-7.393-2.812-5.231-5.121-10.7-7.884-15.955-.88-1.675-2.084-3.092-4.092-3.4a26.015,26.015,0,0,0-3.891-.273q-42.952-.006-85.9-.009H1071.314v-.952h141.56q36.072,0,72.143-.011h0a6.8,6.8,0,0,1,6.516,3.657c2.023,3.591,3.485,7.447,5.469,11.055,1.847,3.361,3.233,6.956,5.055,10.339,1.8,3.344,3.192,6.888,5,10.235s3.192,6.888,5,10.235,3.189,6.889,5,10.233c1.788,3.305,3.22,6.787,4.932,10.133,2.431,4.753,4.657,9.609,7,14.408,2.6,5.331,5.2,10.66,7.867,15.959,1.76,3.5,3.333,7.083,5.12,10.572,2.44,4.751,4.667,9.609,7,14.407,2.613,5.329,5.2,10.664,7.88,15.957,1.76,3.488,3.24,7.111,5.12,10.545,1.827,3.331,3.187,6.888,5,10.232s3.253,6.857,4.987,10.241c2.427,4.753,4.653,9.609,7,14.408,2.613,5.364,5.28,10.707,7.907,16.071,2.373,4.869,4.707,9.763,7.08,14.631,2.587,5.295,5.173,10.591,7.827,15.852,1.773,3.525,3.293,7.167,5.16,10.646,1.147,2.124,2.107,4.347,3.16,6.519,1.707,3.484,3.48,6.931,5.08,10.46.213.454.427.9.667,1.335" transform="translate(146 -40)" fill="#fcfcfc"/>
          <path id="path3424" d="M1426.436-45.312h-.947c-.533-1.069-1.093-2.133-1.587-3.219-1.827-3.933-3.867-7.781-5.747-11.7-2.253-4.7-4.587-9.372-6.893-14.051a23.614,23.614,0,0,1-1.24-2.3c-1.613-4.56-4.147-8.695-6.2-13.044-2.48-5.243-4.933-10.524-7.72-15.623-.867-1.6-1.467-3.31-2.28-4.931-1.227-2.443-2.733-4.761-3.733-7.289-1.733-4.428-4.307-8.436-6.093-12.837-1.467-3.572-3.467-6.909-5.107-10.428-1.787-3.859-3.8-7.631-5.64-11.473-1.747-3.629-3.573-7.223-5.293-10.864-1.307-2.785-2.867-5.444-4.013-8.327-1.04-2.593-2.813-4.892-3.84-7.489-1.773-4.5-4.28-8.624-6.227-13.037-1.747-3.957-3.88-7.767-5.72-11.7-1.373-2.933-2.96-5.752-4.227-8.749-1.48-3.481-3.413-6.763-5.013-10.208-1.787-3.859-3.787-7.632-5.64-11.475-1.745-3.629-3.569-7.223-5.289-10.864-1.316-2.785-2.868-5.444-4.019-8.327-1.035-2.595-2.823-4.889-3.833-7.489-1.753-4.509-4.283-8.624-6.235-13.035-1.8-4.061-3.916-8.011-5.887-12.013-2.269-4.609-4.523-9.227-6.8-13.832-.719-1.453-1.576-2.843-2.223-4.325-2.46-5.625-5.776-8.031-11.619-8.033l-13.516-.008Q1214.943-312,1156.029-312h-84.716v-.952h130.113q42.092,0,84.18.007a20.158,20.158,0,0,1,6.644.779,10.06,10.06,0,0,1,5.639,4.237c2.856,4.819,5.275,9.875,7.637,14.939,1.271,2.725,2.8,5.311,3.993,8.069,1.8,4.172,4.1,8.108,5.952,12.251,1.5,3.365,3.456,6.5,4.855,9.9,1.495,3.632,3.652,6.932,5.147,10.545,1.425,3.447,3.475,6.577,4.892,10.011,1.483,3.592,3.619,6.86,5.1,10.44,1.413,3.449,3.467,6.579,4.893,10.007,1.493,3.584,3.6,6.868,5.08,10.443,1.453,3.48,3.507,6.648,4.96,10.113,1.48,3.547,3.56,6.8,5.04,10.333,1.453,3.473,3.493,6.656,4.947,10.117,1.48,3.544,3.547,6.8,5.04,10.331,1.467,3.468,3.493,6.657,4.933,10.119,1.493,3.548,3.573,6.793,5.053,10.331,1.467,3.513,3.533,6.721,4.987,10.224s3.547,6.723,5,10.224c1.453,3.516,3.533,6.721,4.987,10.225s3.547,6.72,5,10.224,3.547,6.72,4.987,10.225c1.453,3.52,3.56,6.715,5,10.224,1.44,3.524,3.547,6.715,4.987,10.224,1.467,3.563,3.6,6.785,5.053,10.332,1.4,3.453,3.467,6.579,4.893,10.009,1.494,3.586,3.627,6.859,5.067,10.446.32.791.693,1.555,1.067,2.308" transform="translate(146 -40)" fill="#dfdfdf"/>
          <path id="path3426" d="M1416.943-45.312h-1.107c-.24-.439-.453-.881-.667-1.335-1.6-3.529-3.373-6.976-5.08-10.46-1.053-2.172-2.013-4.395-3.16-6.519-1.867-3.48-3.387-7.121-5.16-10.646-2.653-5.261-5.24-10.557-7.827-15.852-2.373-4.868-4.706-9.761-7.08-14.631-2.627-5.364-5.293-10.707-7.907-16.071-2.347-4.8-4.573-9.655-7-14.408-1.733-3.384-3.187-6.9-4.987-10.241s-3.173-6.9-5-10.232c-1.88-3.435-3.36-7.057-5.12-10.545-2.68-5.293-5.267-10.628-7.88-15.957-2.333-4.8-4.56-9.656-7-14.407-1.787-3.489-3.36-7.073-5.12-10.572-2.667-5.3-5.265-10.628-7.867-15.959-2.344-4.8-4.571-9.655-7-14.408-1.712-3.347-3.144-6.828-4.932-10.133-1.811-3.344-3.2-6.892-5-10.233s-3.2-6.893-5-10.235-3.2-6.891-5-10.235c-1.821-3.383-3.208-6.977-5.055-10.339-1.984-3.608-3.447-7.464-5.469-11.055a6.8,6.8,0,0,0-6.516-3.657h0q-36.07.008-72.142.011h-141.56v-.952h118.67q47.92,0,95.845,0a6.651,6.651,0,0,1,6.224,3.565c.992,1.753,1.845,3.579,2.761,5.371,2.14,4.189,4.091,8.475,6.157,12.7,2.953,6.039,5.96,12.053,8.915,18.093,2.049,4.191,4.028,8.416,6.079,12.608,2.955,6.039,5.96,12.053,8.913,18.093,2.032,4.155,3.993,8.345,6.025,12.5,2.907,5.933,5.853,11.841,8.76,17.775,2.093,4.3,4.133,8.628,6.24,12.927,2.893,5.932,5.84,11.841,8.747,17.775,2.107,4.3,4.133,8.628,6.24,12.927,2.907,5.933,5.854,11.841,8.747,17.775,2.107,4.3,4.147,8.628,6.253,12.925,2.893,5.933,5.84,11.843,8.747,17.776,2.107,4.3,4.133,8.628,6.24,12.926,2.92,5.968,5.893,11.909,8.813,17.883,1.707,3.518,3.387,7.053,5.147,10.557,2.613,5.236,5.12,10.527,7.68,15.794,1.08,2.239,2.146,4.488,3.24,6.72.4.8.787,1.588,1.187,2.381" transform="translate(146 -40)" fill="#fafafa"/>
          <path id="path3428" d="M1414.623-45.312h-.787c-1.28-2.492-2.613-4.957-3.693-7.557-1.48-3.531-3.573-6.778-5.053-10.332-1.44-3.458-3.48-6.637-4.947-10.117-1.48-3.565-3.587-6.849-5.093-10.439-1.427-3.42-3.453-6.564-4.88-10.011-1.48-3.532-3.56-6.777-5.053-10.33-1.453-3.495-3.52-6.707-4.987-10.225-1.467-3.494-3.533-6.706-5-10.225-1.453-3.495-3.52-6.705-4.987-10.224-1.453-3.5-3.533-6.7-5-10.225-1.453-3.5-3.533-6.7-4.987-10.224-1.453-3.5-3.533-6.7-5-10.225-1.453-3.5-3.52-6.7-4.987-10.224-1.453-3.5-3.533-6.705-5-10.224s-3.56-6.777-5.04-10.331c-1.453-3.459-3.493-6.637-4.947-10.119-1.467-3.531-3.561-6.776-5.043-10.331-1.443-3.459-3.488-6.636-4.941-10.117-1.473-3.531-3.563-6.777-5.045-10.332-1.443-3.459-3.484-6.637-4.943-10.117-1.493-3.565-3.595-6.848-5.1-10.439-1.431-3.421-3.448-6.567-4.889-10.011-1.493-3.565-3.6-6.848-5.1-10.437-1.428-3.423-3.427-6.579-4.9-10.008-1.527-3.559-3.469-6.94-5.257-10.385a5.443,5.443,0,0,0-3.947-3.029c-.057-.012-.115-.021-.171-.031a5.1,5.1,0,0,0-.811-.061h-.02c-.393,0-.781.036-1.168.071-.368.033-.735.064-1.105.064h0l-35.351-.008-43.078-.005h-11.577q-44.992,0-89.98,0h-31.453v-.952h125.653q42.952,0,85.9.009a26.014,26.014,0,0,1,3.891.273c2.008.305,3.212,1.723,4.092,3.4,2.763,5.251,5.072,10.724,7.884,15.955,1.289,2.4,2.195,5,3.516,7.393,2.032,3.676,3.5,7.628,5.528,11.3,1.841,3.328,3.132,6.921,4.995,10.236s3.216,6.876,4.973,10.245,3.352,6.813,5.017,10.224,3.248,6.868,5.023,10.221c1.76,3.325,3.156,6.819,4.9,10.149,1.765,3.36,3.352,6.811,5.019,10.223l5,10.233c1.667,3.412,3.253,6.865,5.013,10.221,1.787,3.361,3.12,6.933,4.987,10.244s3.213,6.879,4.973,10.247,3.347,6.811,5.013,10.223,3.253,6.867,5.027,10.221,3.107,6.933,4.973,10.245,3.213,6.879,4.973,10.245,3.347,6.8,5.013,10.209l5,10.233c1.667,3.407,3.24,6.857,5.013,10.208s3.187,6.891,4.96,10.257c1.747,3.357,3.347,6.8,5,10.209,1.693,3.443,3.36,6.885,5.053,10.328,1.653,3.407,3.227,6.868,5.013,10.2.707,1.3,1.307,2.659,1.907,4.009" transform="translate(146 -40)" fill="#fdfdfd"/>
          <path id="path3430" d="M1417.783-45.312h-.84c-.4-.793-.787-1.585-1.187-2.381-1.093-2.232-2.16-4.481-3.24-6.72-2.56-5.268-5.067-10.558-7.68-15.794-1.76-3.5-3.44-7.039-5.147-10.557-2.92-5.973-5.893-11.915-8.813-17.883-2.107-4.3-4.133-8.628-6.24-12.926-2.907-5.933-5.853-11.843-8.747-17.776-2.107-4.3-4.147-8.628-6.253-12.925-2.893-5.933-5.84-11.841-8.747-17.775-2.107-4.3-4.133-8.628-6.24-12.927-2.907-5.933-5.853-11.843-8.747-17.775-2.107-4.3-4.147-8.628-6.24-12.927-2.907-5.933-5.853-11.841-8.76-17.775-2.032-4.156-3.993-8.347-6.025-12.5-2.953-6.04-5.959-12.055-8.913-18.093-2.051-4.192-4.029-8.417-6.079-12.608-2.955-6.04-5.961-12.055-8.915-18.093-2.067-4.227-4.017-8.512-6.157-12.7-.916-1.792-1.769-3.617-2.761-5.371a6.651,6.651,0,0,0-6.224-3.565q-47.92,0-95.845,0h-118.67v-.943l.892,0q14.762.024,29.527.023h.029q12.316,0,24.627-.011,12.35-.01,24.7-.025l3.584,0q22.846-.026,45.7-.032h.027q39.424,0,78.848.215h.225l2.932.02,3.532.024h0a7.1,7.1,0,0,1,6.767,3.925c1.4,2.608,2.7,5.26,3.981,7.928,2.877,5.989,5.875,11.92,8.795,17.889,2.085,4.263,4.1,8.559,6.187,12.821,2.938,6,5.927,11.984,8.864,17.988,2.068,4.227,4.064,8.488,6.131,12.716,2.971,6.076,5.993,12.127,8.963,18.2,1.373,2.808,2.653,5.661,4.027,8.472q3.4,6.986,6.853,13.94a37.756,37.756,0,0,0,2.413,4.621h0a1.308,1.308,0,0,0,.467.951h0a4.079,4.079,0,0,0,1.2,2.38h0c1.32,3.437,3.12,6.643,4.733,9.944,2.107,4.333,4.16,8.695,6.28,13.025,2.893,5.931,5.853,11.835,8.747,17.764,1.494,3.056,2.893,6.153,4.387,9.212q3.36,6.928,6.8,13.824a50.156,50.156,0,0,0,2.84,5.466h0a2.434,2.434,0,0,0,.947,1.905h0a1.364,1.364,0,0,0,.467.952h0c1.24,3.3,3,6.356,4.533,9.516,2.24,4.624,4.453,9.26,6.707,13.879,2.32,4.763,4.68,9.507,7,14.267a8.937,8.937,0,0,0,1.52,2.787h0a2.646,2.646,0,0,0,.707,1.426h0a63.12,63.12,0,0,0,4.28,8.8h0a2.66,2.66,0,0,0,.72,1.427h0a61.506,61.506,0,0,0,4.28,8.8h0c.427,1.008.813,2.035,1.28,3.018.32.653.653,1.3.973,1.948" transform="translate(146 -40)" fill="#f7f7f7"/>
          <path id="path3432" d="M1413.17-45.312h-.96q-3.02-6.134-6.04-12.272-5.18-10.562-10.333-21.133-4.8-9.82-9.587-19.648-5.18-10.623-10.373-21.24-4.96-10.142-9.907-20.287-5.04-10.3-10.067-20.6-4.98-10.194-9.96-20.392-5-10.248-10.013-20.5-4.968-10.194-9.951-20.391-5-10.25-10.012-20.5t-10.011-20.5q-4.98-10.2-9.953-20.393c-2.183-4.485-4.391-8.96-6.487-13.485a5.854,5.854,0,0,0-5.937-3.724h-.008q-75.886.048-151.784.037h-60.474v-.713h211.411c.125,0,.253,0,.38.008s.245.007.367.007h.027a3.325,3.325,0,0,0,.623-.053l.027-.007h0a4.4,4.4,0,0,1,.912-.1h.036a5.159,5.159,0,0,1,3.148,1.276c.013.012.028.023.041.033l.079.063.008.007c.031.024.06.049.091.075a7.462,7.462,0,0,1,1.751,2.653c2.257,4.625,4.474,9.269,6.728,13.9q4.962,10.2,9.953,20.392,5.03,10.3,10.064,20.6,4.954,10.142,9.9,20.285,5.032,10.3,10.071,20.6,4.98,10.194,9.947,20.389,5.02,10.25,10.013,20.5T1366.9-139.93l9.96,20.39,10,20.5q5.02,10.248,10.013,20.5,4.98,10.194,9.96,20.388,3.16,6.43,6.333,12.848" transform="translate(146 -40)" fill="#fefefe"/>
          <path id="path3434" d="M1425.49-45.312h-.933c-1.267-2.659-2.387-5.393-3.827-7.968-1.92-3.413-3.28-7.108-5.16-10.549-1.827-3.327-3.173-6.895-5-10.233s-3.173-6.894-5-10.232-3.173-6.895-5-10.233-3.16-6.895-4.987-10.233-3.173-6.893-5-10.232-3.173-6.895-5-10.233-3.173-6.894-5-10.232-3.253-6.852-4.987-10.24c-2.987-5.885-5.6-11.964-8.653-17.819-2.227-4.284-4.053-8.755-6.4-12.983-1.813-3.284-3.227-6.78-4.933-10.131-2.88-5.671-5.4-11.537-8.333-17.18-2.293-4.388-4.187-8.96-6.573-13.3-1.853-3.395-3.227-7.04-5.093-10.447-1.827-3.328-3.168-6.9-5-10.233s-3.168-6.895-5-10.232-3.168-6.9-5-10.233-3.236-6.863-4.987-10.239c-2.656-5.125-5.149-10.34-7.563-15.584-1.109-2.415-2.5-4.676-3.581-7.1-.936-2.093-1.88-4.185-2.905-6.236-1.165-2.336-2.521-4.581-3.621-6.947-2.135-4.588-5.684-6.915-10.711-6.915q-34.126-.006-68.254-.007H1071.313v-.713h84.716q58.916,0,117.828.023l13.516.008c5.843,0,9.159,2.408,11.619,8.033.647,1.483,1.5,2.872,2.223,4.325,2.277,4.605,4.531,9.223,6.8,13.832,1.971,4,4.087,7.952,5.887,12.013,1.952,4.411,4.481,8.525,6.235,13.035,1.011,2.6,2.8,4.895,3.833,7.489,1.151,2.883,2.7,5.541,4.019,8.327,1.72,3.641,3.544,7.235,5.289,10.864,1.853,3.843,3.853,7.616,5.64,11.475,1.6,3.445,3.533,6.727,5.013,10.208,1.267,3,2.853,5.816,4.227,8.749,1.84,3.933,3.973,7.743,5.72,11.7,1.947,4.413,4.453,8.54,6.227,13.037,1.027,2.6,2.8,4.9,3.84,7.489,1.147,2.883,2.707,5.541,4.013,8.327,1.72,3.641,3.547,7.235,5.293,10.864,1.84,3.843,3.853,7.615,5.64,11.473,1.64,3.519,3.64,6.856,5.107,10.428,1.787,4.4,4.36,8.409,6.093,12.837,1,2.528,2.507,4.846,3.733,7.289.813,1.62,1.413,3.328,2.28,4.931,2.787,5.1,5.24,10.38,7.72,15.623,2.053,4.349,4.587,8.484,6.2,13.044a23.611,23.611,0,0,0,1.24,2.3c2.307,4.679,4.64,9.348,6.893,14.051,1.88,3.915,3.92,7.763,5.747,11.7.493,1.085,1.053,2.149,1.587,3.219" transform="translate(146 -40)" fill="#e0e0e0"/>
          <path id="path3436" d="M1421.076-45.312h-.68c-.947-1.876-1.893-3.752-2.8-5.639-1.36-2.776-2.613-5.594-3.973-8.364-1.96-3.976-3.973-7.915-5.92-11.891-2.08-4.225-4.08-8.483-6.147-12.715-1.293-2.668-2.667-5.3-3.96-7.971-1.347-2.776-2.613-5.593-3.973-8.364-1.947-3.976-3.973-7.915-5.92-11.891-2.053-4.191-4.04-8.413-6.08-12.609-1.32-2.7-2.707-5.372-4.027-8.076-1.347-2.776-2.613-5.593-3.96-8.364-1.96-3.976-3.973-7.916-5.933-11.892-1.973-4.047-3.893-8.128-5.867-12.181-1.373-2.809-2.813-5.585-4.173-8.4-1.347-2.776-2.613-5.592-3.973-8.364-1.947-3.976-3.973-7.915-5.92-11.889-2.653-5.4-5.253-10.82-7.893-16.228-.72-1.492-1.493-2.961-2.213-4.457-1.333-2.784-2.613-5.593-3.973-8.365-1.945-3.976-3.969-7.915-5.919-11.889-2.456-5.009-4.861-10.041-7.3-15.057-.916-1.884-1.888-3.741-2.8-5.628-1.339-2.781-2.613-5.595-3.972-8.365-1.949-3.976-3.975-7.915-5.923-11.891-2.192-4.475-4.32-8.983-6.5-13.461-2.113-4.336-4.223-8.673-6.413-12.969-1.663-3.261-4.255-5.241-8.063-5.243H1071.314v-.715H1112.4q43.182,0,86.356,0t86.38-.016h.035a18.619,18.619,0,0,1,5.223.664l.14.041.091.028h0c.355.235.7.487,1.064.7,1.485.875,2.351,2.344,3.457,3.581h0c.3,1.3,1.205,2.3,1.752,3.485,1.392,3.017,2.807,6.027,4.268,9.011,1.876,3.835,3.829,7.632,5.711,11.463q4.13,8.418,8.2,16.863c.62,1.279,1.228,2.561,1.872,3.829,1.593,3.141,3.037,6.356,4.581,9.521,1.8,3.695,3.668,7.357,5.468,11.055,3.064,6.3,6.08,12.616,9.145,18.909,1.88,3.836,3.84,7.625,5.72,11.463,3.094,6.367,6.133,12.765,9.227,19.132,1.92,3.947,3.933,7.847,5.853,11.791q5.36,10.98,10.667,21.985,2.32,4.75,4.627,9.492c1.427,2.92,2.84,5.84,4.267,8.757q2.78,5.7,5.587,11.392,2.2,4.536,4.413,9.079,2.76,5.644,5.533,11.284c1.494,3.059,2.96,6.13,4.467,9.187,1.813,3.689,3.653,7.361,5.453,11.056,3.16,6.473,6.28,12.964,9.44,19.436,1.813,3.731,3.707,7.43,5.533,11.156,1.387,2.84,2.76,5.687,4.147,8.533" transform="translate(146 -40)" fill="#ebebeb"/>
          <path id="path3438" d="M1422.863-45.312h-.627q-1.72-3.5-3.427-7c-2.093-4.3-4.133-8.629-6.24-12.927-2.987-6.109-6.027-12.2-9.027-18.307-1.387-2.843-2.667-5.737-4.067-8.579-2.053-4.188-4.187-8.336-6.24-12.524-1.92-3.905-3.747-7.851-5.653-11.757-2.973-6.075-6-12.125-8.973-18.2-1.413-2.915-2.747-5.877-4.173-8.789-2.053-4.188-4.187-8.339-6.24-12.527-2.147-4.368-4.227-8.765-6.347-13.139-1.24-2.524-2.533-5.016-3.76-7.543-1.187-2.457-2.28-4.957-3.493-7.407-2.107-4.295-4.28-8.551-6.4-12.847-2.133-4.365-4.213-8.764-6.347-13.137-1.213-2.489-2.48-4.945-3.693-7.437-1.28-2.635-2.467-5.309-3.76-7.937-2.02-4.116-4.116-8.2-6.136-12.313-2.28-4.652-4.5-9.333-6.765-13.992-1.089-2.24-2.247-4.448-3.329-6.691-1.239-2.565-2.395-5.171-3.652-7.727-2.056-4.187-4.189-8.336-6.244-12.524-2.264-4.616-4.468-9.261-6.713-13.885q-2.508-5.17-5.061-10.317l-.025-.049c-.039-.079-.079-.156-.119-.233a.358.358,0,0,0-.017-.033,10.452,10.452,0,0,0-10.012-6.029h-.023q-34.95.016-69.893.021-34.91.006-69.809,0h-75.284v-.713h209.876c.373,0,.747,0,1.12,0l1.08,0h.029a41.667,41.667,0,0,1,4.525.192c.2.021.392.044.588.071h0a9.565,9.565,0,0,1,5.389,2.423,17.343,17.343,0,0,1,3.361,4.675c2.071,3.832,3.6,7.927,5.728,11.731,1.859,3.316,3.1,6.931,4.992,10.236s3.108,6.928,5,10.235,3.108,6.927,5,10.233,3.109,6.927,5,10.233,3.109,6.927,5,10.233,3.109,6.927,5,10.232,3.113,6.928,4.993,10.235,3.107,6.928,5,10.233c1.867,3.263,3.067,6.856,4.947,10.125,1.893,3.3,3.107,6.929,5,10.233s3.107,6.928,5,10.233,3.107,6.928,5,10.233,3.107,6.928,5,10.233,3.093,6.928,4.987,10.233,3.107,6.928,5,10.233,3.107,6.928,5,10.233,3.107,6.928,5,10.233,3.107,6.928,5,10.234,3.107,6.928,4.987,10.233,3.107,6.928,5,10.233,3.107,6.928,5,10.233,3.107,6.928,5,10.233,3.213,6.877,4.973,10.246c1.76,3.348,3.32,6.788,4.987,10.184" transform="translate(146 -40)" fill="#e5e5e5"/>
          <path id="path3440" d="M1424.557-45.312h-.573c-.067-.143-.147-.284-.213-.427-2.333-4.716-4.573-9.472-6.88-14.2-2.68-5.471-5.4-10.92-8.067-16.391-2.333-4.761-4.6-9.546-6.933-14.308-2.667-5.471-5.387-10.92-8.067-16.39-2.32-4.761-4.6-9.549-6.92-14.309-2.68-5.471-5.387-10.919-8.067-16.389-2.32-4.761-4.6-9.548-6.933-14.309-2.68-5.507-5.427-10.989-8.12-16.5-2.307-4.725-4.56-9.479-6.867-14.2-2.693-5.505-5.427-10.989-8.12-16.5-2.307-4.725-4.56-9.477-6.88-14.2-2.68-5.507-5.427-10.989-8.12-16.5-2.3-4.725-4.559-9.477-6.868-14.2-2.708-5.541-5.465-11.059-8.173-16.6-2.293-4.691-4.527-9.409-6.819-14.1-2.708-5.541-5.451-11.067-8.18-16.6-2.217-4.5-4.2-9.115-6.695-13.476a10.244,10.244,0,0,0-4.757-4.767,15.667,15.667,0,0,0-6.006-1.135h0l-73.187,0h-141.8v-.476H1219q34.126,0,68.255.007c5.027,0,8.576,2.327,10.711,6.915,1.1,2.365,2.456,4.611,3.621,6.947,1.025,2.051,1.969,4.143,2.905,6.236,1.084,2.423,2.472,4.684,3.581,7.1,2.413,5.244,4.907,10.459,7.563,15.584,1.751,3.376,3.163,6.911,4.987,10.239s3.173,6.905,5,10.233,3.173,6.905,5,10.232,3.171,6.905,5,10.233c1.867,3.407,3.24,7.052,5.093,10.447,2.387,4.339,4.28,8.911,6.573,13.3,2.933,5.643,5.453,11.509,8.333,17.18,1.707,3.351,3.12,6.847,4.933,10.131,2.347,4.228,4.173,8.7,6.4,12.983,3.053,5.855,5.667,11.933,8.653,17.819,1.733,3.388,3.173,6.911,4.987,10.24s3.173,6.9,5,10.232,3.173,6.9,5,10.233,3.173,6.9,5,10.232,3.173,6.9,4.987,10.233,3.187,6.9,5,10.233,3.173,6.9,5,10.232,3.173,6.906,5,10.233c1.88,3.441,3.24,7.136,5.16,10.549,1.44,2.575,2.56,5.309,3.827,7.968" transform="translate(146 -40)" fill="#e1e1e1"/>
          <path id="path3442" d="M1420.4-45.312h-.654q-2.68-5.524-5.346-11.04-4.94-10.15-9.907-20.289-5-10.25-10.013-20.5t-10.013-20.5q-4.98-10.2-9.947-20.393-5.02-10.25-10.013-20.5-5.02-10.248-10.013-20.5l-9.96-20.392q-5.04-10.3-10.067-20.6-4.952-10.142-9.9-20.288-5.3-10.836-10.6-21.668c-3.128-6.405-6.232-12.823-9.375-19.221q-5.054-10.3-10.175-20.56a9.444,9.444,0,0,0-2.955-3.644,10.573,10.573,0,0,0-6.332-1.577q-106.908-.026-213.814-.016v-.475H1286.8c3.808,0,6.4,1.981,8.063,5.243,2.191,4.3,4.3,8.633,6.413,12.969,2.183,4.479,4.311,8.987,6.5,13.461,1.948,3.976,3.973,7.915,5.923,11.891,1.359,2.771,2.633,5.584,3.972,8.365.909,1.887,1.881,3.744,2.8,5.628,2.44,5.016,4.845,10.048,7.3,15.057,1.949,3.975,3.973,7.913,5.919,11.889,1.36,2.772,2.64,5.581,3.973,8.365.72,1.5,1.493,2.965,2.213,4.457,2.64,5.408,5.24,10.829,7.893,16.228,1.947,3.975,3.973,7.913,5.92,11.889,1.36,2.772,2.627,5.588,3.973,8.364,1.36,2.811,2.8,5.587,4.173,8.4,1.973,4.053,3.894,8.135,5.867,12.181,1.96,3.976,3.973,7.916,5.933,11.892,1.347,2.771,2.613,5.588,3.96,8.364,1.32,2.7,2.707,5.373,4.027,8.076,2.04,4.2,4.027,8.419,6.08,12.609,1.947,3.976,3.973,7.915,5.92,11.891,1.36,2.771,2.627,5.588,3.973,8.364,1.293,2.669,2.667,5.3,3.96,7.971,2.067,4.232,4.067,8.489,6.147,12.715,1.947,3.976,3.96,7.915,5.92,11.891,1.36,2.77,2.613,5.588,3.973,8.364.907,1.887,1.854,3.763,2.8,5.639" transform="translate(146 -40)" fill="#eee"/>
          <path id="path3444" d="M1422.237-45.312h-.587q-2.76-5.682-5.507-11.357-5-10.252-10.013-20.495l-10-20.493q-4.98-10.194-9.96-20.388-5-10.248-10.013-20.495l-10-20.493-9.96-20.388q-5.04-10.3-10.067-20.6-4.94-10.14-9.893-20.283-5.22-10.674-10.437-21.345-4.77-9.766-9.532-19.536c-3.388-6.939-6.757-13.888-10.177-20.809-3.381-6.841-6.819-13.656-10.232-20.483a1.109,1.109,0,0,0,.005-.115,2.01,2.01,0,0,0-.719-1.312l-.952-1.191a2.512,2.512,0,0,0-1.665-1.665c-.4-.241-.879-.335-1.191-.713-1.333-1.116-2.977-1.173-4.565-1.173q-27.968-.008-55.937-.011l-20.761,0h-11.315l-87.989,0h-39.456v-.475H1146.6q34.91,0,69.809,0,34.95-.006,69.893-.021h.023a10.452,10.452,0,0,1,10.012,6.029c.007.011.012.023.017.033.04.077.08.155.119.233l.025.049q2.548,5.15,5.061,10.317c2.245,4.624,4.449,9.269,6.713,13.885,2.055,4.188,4.188,8.337,6.244,12.524,1.257,2.556,2.413,5.161,3.652,7.727,1.083,2.243,2.24,4.451,3.329,6.691,2.265,4.659,4.485,9.34,6.765,13.992,2.02,4.117,4.116,8.2,6.136,12.313,1.293,2.628,2.48,5.3,3.76,7.937,1.213,2.492,2.48,4.948,3.693,7.437,2.133,4.373,4.213,8.772,6.347,13.137,2.12,4.3,4.293,8.552,6.4,12.847,1.213,2.449,2.307,4.949,3.493,7.407,1.227,2.527,2.52,5.019,3.76,7.543,2.12,4.373,4.2,8.771,6.347,13.139,2.053,4.188,4.187,8.339,6.24,12.527,1.427,2.912,2.76,5.875,4.173,8.789,2.973,6.076,6,12.126,8.973,18.2,1.907,3.906,3.733,7.852,5.653,11.757,2.053,4.188,4.187,8.336,6.24,12.524,1.4,2.841,2.68,5.736,4.067,8.579,3,6.11,6.04,12.2,9.027,18.307,2.107,4.3,4.147,8.622,6.24,12.927q1.7,3.506,3.427,7" transform="translate(146 -40)" fill="#e7e7e7"/>
          <path id="path3446" d="M1419.743-45.312h-.573q-.7-1.44-1.4-2.876-4.52-9.166-9.04-18.326c-.12-.248-.213-.512-.333-.761-1.347-2.857-2.693-5.723-4.28-8.461-.373-.91-.707-1.841-1.147-2.725q-4.92-10.148-9.88-20.279-5.22-10.672-10.427-21.338-4.78-9.764-9.533-19.529-5.16-10.562-10.333-21.121c-3-6.113-6.027-12.216-9.027-18.324-.133-.247-.213-.512-.333-.761-1.36-2.856-2.693-5.723-4.28-8.459a5.653,5.653,0,0,0-.227-.669q-2.94-6.15-5.907-12.295-4.94-10.14-9.891-20.265-5.05-10.342-10.112-20.683c-3.051-6.217-6.136-12.416-9.179-18.637a34.648,34.648,0,0,0-2.28-4.539,23.4,23.4,0,0,0-2.619-5.469.5.5,0,0,1-.237-.477,6.771,6.771,0,0,0-1.428-2.855,2.682,2.682,0,0,1-.713-1.428,23.3,23.3,0,0,0-2.617-5.471.5.5,0,0,1-.239-.477,6.755,6.755,0,0,0-1.427-2.855,2.683,2.683,0,0,1-.713-1.428,23.313,23.313,0,0,0-2.619-5.471.5.5,0,0,1-.237-.477,6.754,6.754,0,0,0-1.427-2.855,2.687,2.687,0,0,1-.715-1.428,16.662,16.662,0,0,0-2.616-5.235,1.478,1.478,0,0,0-.713-1.191,2.421,2.421,0,0,0-.724-1.325c-1.888-2.145-4.408-2.705-7.076-2.705q-40.254-.008-80.505-.011l-80.405,0h-53.219V-307q106.91,0,213.814.016a10.573,10.573,0,0,1,6.332,1.577,9.444,9.444,0,0,1,2.955,3.644q5.132,10.258,10.175,20.56c3.143,6.4,6.247,12.816,9.375,19.221q5.294,10.836,10.6,21.668,4.954,10.142,9.9,20.288,5.04,10.3,10.067,20.6l9.96,20.392q5,10.25,10.013,20.5t10.013,20.5q4.98,10.2,9.947,20.393,5.02,10.248,10.013,20.5,5.02,10.25,10.013,20.5,4.96,10.144,9.907,20.289,2.68,5.514,5.346,11.04" transform="translate(146 -40)" fill="#f0f0f0"/>
          <path id="path3448" d="M1423.983-45.312h-.547c-.627-1.231-1.24-2.46-1.827-3.7-2.72-5.715-5.587-11.353-8.373-17.037-2.213-4.547-4.373-9.125-6.6-13.672-2.787-5.684-5.613-11.344-8.387-17.028-2.227-4.547-4.387-9.125-6.613-13.672-2.773-5.684-5.6-11.343-8.387-17.027-2.213-4.548-4.373-9.125-6.6-13.672-2.8-5.72-5.64-11.415-8.44-17.135-2.2-4.512-4.347-9.053-6.56-13.565-2.787-5.72-5.64-11.415-8.427-17.135-2.2-4.476-4.32-8.983-6.507-13.459-2.747-5.613-5.533-11.2-8.28-16.816-2.253-4.619-4.453-9.267-6.712-13.885-2.744-5.612-5.535-11.2-8.279-16.815-2.276-4.655-4.493-9.336-6.771-13.991-2.884-5.9-5.816-11.769-8.7-17.668-1.32-2.7-2.471-5.488-3.88-8.141-2.228-4.193-4.081-8.567-6.309-12.757a17.622,17.622,0,0,0-3.567-5.224c-2.456-2.188-5.464-2.591-8.517-2.592q-38.156-.016-76.307-.019t-76.284,0h-61.8v-.476h141.8l73.187,0h0a15.668,15.668,0,0,1,6.007,1.135,10.244,10.244,0,0,1,4.757,4.767c2.5,4.361,4.477,8.977,6.695,13.476,2.729,5.532,5.472,11.057,8.18,16.6,2.292,4.689,4.525,9.408,6.819,14.1,2.708,5.541,5.465,11.059,8.173,16.6,2.309,4.727,4.565,9.479,6.868,14.2,2.693,5.507,5.44,10.989,8.12,16.5,2.32,4.725,4.573,9.477,6.88,14.2,2.693,5.507,5.427,10.991,8.12,16.5,2.307,4.725,4.56,9.479,6.867,14.2,2.693,5.507,5.44,10.989,8.12,16.5,2.333,4.761,4.613,9.548,6.933,14.309,2.68,5.471,5.387,10.919,8.067,16.389,2.32,4.761,4.6,9.548,6.92,14.309,2.68,5.47,5.4,10.92,8.067,16.39,2.333,4.761,4.6,9.546,6.933,14.308,2.667,5.471,5.387,10.92,8.067,16.391,2.307,4.727,4.547,9.483,6.88,14.2.067.143.147.284.213.427" transform="translate(146 -40)" fill="#e3e3e3"/>
          <path id="path3450" d="M1413.837-45.312h-.667q-3.18-6.422-6.333-12.848-5-10.186-9.96-20.388-5-10.249-10.013-20.5l-10-20.5-9.96-20.39q-5-10.248-10.013-20.495t-10.013-20.5q-4.98-10.194-9.947-20.389-5.04-10.3-10.071-20.6-4.952-10.14-9.9-20.285-5.03-10.3-10.064-20.6-4.982-10.194-9.953-20.392c-2.253-4.628-4.471-9.272-6.728-13.9a7.463,7.463,0,0,0-1.751-2.653c-.031-.025-.06-.051-.091-.075l-.008-.007-.079-.063c-.013-.011-.028-.021-.041-.033a5.159,5.159,0,0,0-3.148-1.276h-.036a4.4,4.4,0,0,0-.912.1h0l-.027.007a3.327,3.327,0,0,1-.623.053h-.027c-.121,0-.244,0-.367-.007s-.255-.008-.38-.008H1071.313v-.476h31.453q44.992,0,89.98,0h11.577l43.079.005,35.35.008h0c.371,0,.737-.031,1.105-.064.387-.035.775-.069,1.168-.071h.02a5.1,5.1,0,0,1,.811.061c.056.009.113.019.171.031a5.443,5.443,0,0,1,3.947,3.029c1.788,3.445,3.731,6.827,5.257,10.385,1.471,3.429,3.469,6.585,4.9,10.008,1.5,3.589,3.6,6.872,5.1,10.437,1.441,3.444,3.459,6.589,4.889,10.011,1.5,3.591,3.6,6.873,5.1,10.439,1.459,3.48,3.5,6.659,4.943,10.117,1.483,3.555,3.572,6.8,5.045,10.332,1.453,3.481,3.5,6.659,4.941,10.117,1.481,3.555,3.576,6.8,5.043,10.331,1.453,3.481,3.493,6.66,4.947,10.119,1.48,3.553,3.573,6.8,5.04,10.331s3.547,6.728,5,10.224c1.467,3.521,3.533,6.728,4.987,10.224,1.467,3.521,3.547,6.729,5,10.225,1.453,3.52,3.533,6.728,4.987,10.224,1.467,3.521,3.547,6.729,5,10.225,1.467,3.519,3.533,6.729,4.987,10.224,1.467,3.519,3.533,6.731,5,10.225,1.467,3.518,3.533,6.73,4.987,10.225,1.493,3.553,3.573,6.8,5.053,10.33,1.427,3.447,3.453,6.591,4.88,10.011,1.507,3.589,3.613,6.873,5.094,10.439,1.467,3.48,3.506,6.659,4.947,10.117,1.48,3.555,3.573,6.8,5.053,10.332,1.08,2.6,2.413,5.065,3.693,7.557" transform="translate(146 -40)" fill="#fefefe"/>
          <path id="path3452" d="M1423.436-45.312h-.573c-1.667-3.4-3.227-6.836-4.987-10.184-1.76-3.369-3.08-6.947-4.973-10.246s-3.107-6.934-5-10.233-3.107-6.935-5-10.233-3.107-6.935-5-10.233-3.107-6.935-4.987-10.233-3.12-6.935-5-10.234-3.107-6.934-5-10.233-3.107-6.935-5-10.233-3.107-6.935-5-10.233-3.107-6.935-4.987-10.233-3.12-6.936-5-10.233-3.12-6.936-5-10.233-3.107-6.937-5-10.233-3.107-6.937-5-10.233c-1.88-3.269-3.08-6.863-4.947-10.125-1.893-3.305-3.107-6.933-5-10.233s-3.107-6.935-4.993-10.235-3.113-6.932-5-10.232-3.113-6.935-5-10.233-3.112-6.935-5-10.233-3.111-6.935-5-10.233-3.112-6.935-5-10.235-3.133-6.92-4.992-10.236c-2.129-3.8-3.657-7.9-5.728-11.731a17.342,17.342,0,0,0-3.361-4.675,9.565,9.565,0,0,0-5.389-2.423h0c-.2-.027-.392-.049-.588-.071a41.663,41.663,0,0,0-4.525-.192h-.029l-1.08,0c-.373,0-.747,0-1.12,0H1071.313v-.476h61.8q38.142,0,76.284,0t76.306.019c3.053,0,6.061.4,8.517,2.592a17.619,17.619,0,0,1,3.567,5.224c2.228,4.191,4.081,8.564,6.309,12.757,1.409,2.653,2.56,5.441,3.88,8.141,2.883,5.9,5.815,11.772,8.7,17.668,2.277,4.655,4.495,9.336,6.771,13.991,2.744,5.613,5.535,11.2,8.279,16.815,2.259,4.619,4.459,9.267,6.712,13.885,2.747,5.612,5.533,11.2,8.28,16.816,2.187,4.476,4.307,8.983,6.507,13.459,2.787,5.72,5.64,11.415,8.427,17.135,2.213,4.512,4.36,9.053,6.56,13.565,2.8,5.72,5.64,11.415,8.44,17.135,2.227,4.547,4.387,9.124,6.6,13.672,2.787,5.684,5.613,11.343,8.387,17.027,2.227,4.548,4.387,9.125,6.613,13.672,2.773,5.684,5.6,11.344,8.387,17.028,2.227,4.548,4.387,9.125,6.6,13.672,2.787,5.684,5.653,11.322,8.373,17.037.587,1.244,1.2,2.473,1.827,3.7" transform="translate(146 -40)" fill="#e4e4e4"/>
          <path id="path3454" d="M1348.917-186.606a37.739,37.739,0,0,1-2.413-4.621q-3.46-6.954-6.853-13.94c-1.373-2.811-2.653-5.664-4.027-8.472-2.969-6.076-5.992-12.127-8.963-18.2-2.067-4.228-4.062-8.489-6.131-12.716-2.937-6-5.927-11.984-8.864-17.988-2.087-4.263-4.1-8.559-6.187-12.821-2.92-5.969-5.917-11.9-8.795-17.889-1.281-2.668-2.584-5.32-3.981-7.928a7.1,7.1,0,0,0-6.767-3.925h0l-3.532-.024-2.932-.02h-.225q-39.422-.252-78.848-.215h-.027q-22.852,0-45.7.032l-3.584,0q-12.352.014-24.7.025-12.314.01-24.627.011h-.029q-14.764,0-29.527-.023l-.892,0v-.484h212.1c.248,0,.5,0,.744-.005s.481-.005.721-.005h.035l.4,0c.16,0,.321.007.481.013h0c3.5.141,6.139,1.553,7.759,4.851,3.752,7.643,7.529,15.272,11.22,22.947,3.293,6.851,6.664,13.665,10,20.5s6.673,13.663,10.009,20.495q4.978,10.194,9.959,20.387c3.12,6.365,6.28,12.716,9.413,19.073h0a13.517,13.517,0,0,0,1.667,3.332h0a.471.471,0,0,0,.24.476.354.354,0,0,0-.013.116,2.862,2.862,0,0,0,.44,1.209c.787,1.712,1.8,3.309,2.427,5.1v.716h0" transform="translate(146 -40)" fill="#f5f5f5"/>
          <path id="path3456" d="M1349.157-188.034c-.227-.368-.467-.728-.68-1.1a49.94,49.94,0,0,0-2.413-4.607h0a.471.471,0,0,1-.24-.476h0a6.875,6.875,0,0,0-1.667-3.332h0c-3.133-6.357-6.293-12.708-9.413-19.073q-5-10.184-9.959-20.387-5-10.248-10.009-20.495c-3.337-6.832-6.708-13.647-10-20.5-3.691-7.675-7.468-15.3-11.22-22.947-1.62-3.3-4.255-4.709-7.759-4.851h0c-.16-.007-.321-.011-.481-.013l-.4,0h-.035c-.24,0-.48,0-.721.005s-.5.005-.744.005h-212.1v-.476q106.43,0,212.861,0a21.987,21.987,0,0,1,4.221.428,8.5,8.5,0,0,1,4.847,3.375h0a1.468,1.468,0,0,0,.713,1.191h0a32.766,32.766,0,0,0,2.616,5.235h0a2.684,2.684,0,0,0,.715,1.428h0a5.135,5.135,0,0,0,1.427,2.855h0a.5.5,0,0,0,.237.477h0a23.539,23.539,0,0,0,2.619,5.471h0a2.684,2.684,0,0,0,.713,1.428h0a5.134,5.134,0,0,0,1.427,2.855h0a.5.5,0,0,0,.239.477h0a23.515,23.515,0,0,0,2.617,5.471h0a2.683,2.683,0,0,0,.713,1.428h0a5.141,5.141,0,0,0,1.428,2.855h0a.5.5,0,0,0,.237.477h0a23.377,23.377,0,0,0,2.619,5.469h0a34.632,34.632,0,0,1,2.28,4.539c3.043,6.221,6.128,12.42,9.179,18.637q5.074,10.334,10.112,20.683,4.956,10.13,9.891,20.265,2.98,6.134,5.907,12.295a5.651,5.651,0,0,1,.227.669v.24" transform="translate(146 -40)" fill="#f3f3f3"/>
          <path id="path3458" d="M1291.337-307.473h-.715l-.091-.028-.14-.041a18.621,18.621,0,0,0-5.223-.664h-.035q-43.188.014-86.38.016-43.176,0-86.356,0h-41.085v-.476h39.456l87.989,0h11.315l20.761,0q27.968,0,55.937.011c1.588,0,3.232.057,4.565,1.173" fill="#e9e9e9"/>
          <path id="path3460" d="M1293.242-302.478a8.506,8.506,0,0,0-4.847-3.375,21.986,21.986,0,0,0-4.221-.428q-106.43,0-212.861,0v-.239h53.219l80.405,0q40.252,0,80.505.011c2.668,0,5.188.56,7.076,2.705a2.422,2.422,0,0,1,.724,1.325h0" fill="#f2f2f2"/>
          <path id="path3462" d="M1385.783-111.184a1.363,1.363,0,0,1-.467-.952h0a4.639,4.639,0,0,0-.947-1.905h0a50.115,50.115,0,0,1-2.84-5.466q-3.44-6.892-6.8-13.824c-1.493-3.059-2.893-6.156-4.387-9.212-2.893-5.929-5.854-11.833-8.747-17.764-2.12-4.331-4.173-8.692-6.28-13.025-1.613-3.3-3.413-6.507-4.733-9.944v-.715h0l.24,0h0c.067.157.147.315.227.473h0a75.551,75.551,0,0,0,4.76,9.755h0a7.083,7.083,0,0,0,.333.884q3.84,7.836,7.72,15.665a21.484,21.484,0,0,0,1.947,3.912h0v.22a.5.5,0,0,0,.04.247c1.613,3.272,3.12,6.6,4.96,9.764h0a.486.486,0,0,0,.227.477h0a75.622,75.622,0,0,0,4.76,9.755h0a.521.521,0,0,0,.24.476h0a37,37,0,0,0,3.333,6.9h0a9.988,9.988,0,0,0,1.427,2.855h0a.473.473,0,0,0,.24.476h0a73.869,73.869,0,0,0,4.76,9.755h0a.485.485,0,0,0,.227.476h0c0,.237.013.475.013.712l-.253,0" fill="#f5f5f5"/>
          <path id="path3464" d="M1405.543-70.736a8.937,8.937,0,0,1-1.52-2.787c-2.32-4.76-4.68-9.5-7-14.267-2.253-4.619-4.467-9.255-6.707-13.879-1.533-3.16-3.293-6.212-4.533-9.516h0l.253,0h0a3.523,3.523,0,0,1,.707,1.2c1.387,2.6,2.52,5.319,4.04,7.84h0c.933,2.391,2.253,4.585,3.333,6.9h0c0,.027.013.055.013.083,0,.045-.013.092-.013.137a.727.727,0,0,0,.04.247c1.587,3.288,3.133,6.6,4.96,9.763h0v.221a.723.723,0,0,0,.04.247c1.587,3.288,3.133,6.6,4.96,9.764h0a2.431,2.431,0,0,0,.707,1.665h0v.236h0c.067.731.72,1.266.72,2.015v.132h0" fill="#f5f5f5"/>
          <path id="path3466" d="M1418.516-45.312h-.733c-.32-.647-.654-1.295-.973-1.948-.467-.983-.853-2.009-1.28-3.018h0a59.9,59.9,0,0,0-4.28-8.8h0a2.66,2.66,0,0,1-.72-1.427h0a59.81,59.81,0,0,0-4.28-8.8h0a2.644,2.644,0,0,1-.707-1.426h0v-.132c0-.749-.653-1.284-.72-2.015.587.312.707.94.96,1.457,2.04,4.193,4.027,8.408,6.08,12.6q3.3,6.768,6.653,13.517" fill="#f5f5f5"/>
          <path id="path3468" d="M1415.53-50.277a61.48,61.48,0,0,1-4.28-8.8h0a59.874,59.874,0,0,1,4.28,8.8h0" fill="#f5f5f5"/>
          <path id="path3470" d="M1410.53-60.507a63.107,63.107,0,0,1-4.28-8.8h0a59.8,59.8,0,0,1,4.28,8.8h0" fill="#f5f5f5"/>
          <path id="path3472" d="M1350.583-183.99h0c-.693-.347-.627-1.231-1.2-1.665h0a1.307,1.307,0,0,1-.467-.951h0v-.716h.24c.467,1.111.947,2.221,1.427,3.332h0" fill="#f5f5f5"/>
          <path id="path3474" d="M1350.583-183.276a4.079,4.079,0,0,1-1.2-2.38h0c.573.435.507,1.319,1.2,1.665h0v.715h0" fill="#f5f5f5"/>
          <path id="path3476" d="M1385.317-112.136a2.432,2.432,0,0,1-.947-1.905h0a4.639,4.639,0,0,1,.947,1.905h0" fill="#f5f5f5"/>
          <path id="path3478" d="M1421.65-45.312h-.573c-1.387-2.847-2.76-5.693-4.147-8.533-1.827-3.727-3.72-7.425-5.533-11.156-3.16-6.472-6.28-12.962-9.44-19.436-1.8-3.695-3.64-7.367-5.453-11.056-1.507-3.057-2.973-6.128-4.467-9.187q-2.76-5.646-5.533-11.284-2.22-4.536-4.413-9.079-2.8-5.7-5.587-11.392c-1.427-2.917-2.84-5.837-4.267-8.757q-2.3-4.746-4.627-9.492-5.32-10.992-10.667-21.985c-1.92-3.944-3.933-7.844-5.854-11.791-3.093-6.367-6.133-12.765-9.227-19.132-1.88-3.837-3.84-7.627-5.72-11.463-3.065-6.293-6.081-12.613-9.145-18.909-1.8-3.7-3.665-7.36-5.468-11.055-1.544-3.165-2.988-6.38-4.581-9.521-.644-1.268-1.252-2.551-1.872-3.829q-4.086-8.438-8.2-16.863c-1.881-3.831-3.835-7.628-5.711-11.463-1.461-2.984-2.876-5.993-4.268-9.011-.547-1.183-1.452-2.183-1.752-3.485h0c.237.239.476.476.712.715h0c3.413,6.827,6.851,13.641,10.232,20.483,3.42,6.921,6.789,13.871,10.177,20.809q4.768,9.766,9.532,19.536,5.214,10.674,10.437,21.345,4.94,10.14,9.893,20.283,5.04,10.3,10.067,20.6l9.96,20.388q5,10.246,10,20.493,5.02,10.248,10.013,20.495,4.98,10.192,9.96,20.388l10,20.493q5.02,10.246,10.013,20.495,2.76,5.672,5.507,11.357" transform="translate(146 -40)" fill="#e9e9e9"/>
          <path id="path3480" d="M1295.143-303.19c-1.107-1.237-1.972-2.707-3.457-3.581-.365-.215-.709-.467-1.064-.7h.715c.312.379.795.472,1.191.713h0a6.911,6.911,0,0,0,1.665,1.665h0l.952,1.191h0c0,.237,0,.473,0,.712h0" fill="#e9e9e9"/>
          <path id="path3482" d="M1294.193-305.094a6.911,6.911,0,0,1-1.665-1.665h0a2.512,2.512,0,0,1,1.665,1.665h0" fill="#e9e9e9"/>
          <path id="path3484" d="M1295.858-302.477c-.236-.239-.475-.476-.712-.715h0c0-.239,0-.475,0-.712h0a2.009,2.009,0,0,1,.719,1.312,1.109,1.109,0,0,1-.005.115h0" fill="#e9e9e9"/>
          <path id="path3486" d="M1404.117-75.5a3.377,3.377,0,0,1-.72-1.209c-1.467-2.752-2.667-5.635-4.28-8.311h0v-.219a.5.5,0,0,0-.04-.246c-1.613-3.272-3.12-6.6-4.96-9.764h0c-1.08-2.315-2.4-4.509-3.333-6.9h0a71.953,71.953,0,0,0-4.76-9.754h0a.485.485,0,0,1-.227-.476h0a73.4,73.4,0,0,0-4.76-9.755h0a.472.472,0,0,1-.24-.476h0a7.826,7.826,0,0,0-1.427-3.1,53.845,53.845,0,0,0-3.333-6.658h0a.522.522,0,0,1-.24-.476h0a73.492,73.492,0,0,0-4.76-9.755h0a.486.486,0,0,1-.227-.477h0a.172.172,0,0,1-.013-.081v-.145a.47.47,0,0,0-.04-.239c-1.613-3.273-3.12-6.6-4.947-9.765h0a21.492,21.492,0,0,1-1.947-3.912q-3.88-7.828-7.72-15.665a7.084,7.084,0,0,1-.333-.884h0a73.573,73.573,0,0,0-4.76-9.755h0c-.08-.159-.16-.316-.227-.473h0a6.874,6.874,0,0,0-1.667-3.335h0v-.712h0v-.24c1.587,2.736,2.92,5.6,4.28,8.459.12.249.2.515.333.761,3,6.108,6.027,12.211,9.027,18.324q5.18,10.552,10.333,21.121,4.76,9.764,9.533,19.529,5.2,10.67,10.427,21.338,4.94,10.134,9.88,20.279c.44.884.773,1.815,1.147,2.725v.242" fill="#f3f3f3"/>
          <path id="path3488" d="M1419.17-45.312h-.653q-3.34-6.756-6.653-13.517c-2.053-4.188-4.04-8.4-6.08-12.6-.253-.517-.373-1.145-.96-1.457h0v-.236h0a2.431,2.431,0,0,0-.707-1.665h0v-.954c1.587,2.739,2.933,5.6,4.28,8.461.12.249.213.513.333.761q4.52,9.164,9.04,18.326.7,1.436,1.4,2.876" fill="#f2f2f2"/>
          <path id="path3490" d="M1301.569-285.822a23.545,23.545,0,0,1-2.619-5.471h0a23.307,23.307,0,0,1,2.619,5.471h0" fill="#f2f2f2"/>
          <path id="path3492" d="M1306.565-275.591a23.509,23.509,0,0,1-2.617-5.471h0a23.3,23.3,0,0,1,2.617,5.471h0" fill="#f2f2f2"/>
          <path id="path3494" d="M1311.562-265.362a23.378,23.378,0,0,1-2.619-5.469h0a23.4,23.4,0,0,1,2.619,5.469h0" fill="#f2f2f2"/>
          <path id="path3496" d="M1296.571-296.053a32.791,32.791,0,0,1-2.616-5.235h0a16.662,16.662,0,0,1,2.616,5.235h0" fill="#f2f2f2"/>
          <path id="path3498" d="M1308.706-271.309a5.141,5.141,0,0,1-1.428-2.855h0a6.773,6.773,0,0,1,1.428,2.855h0" fill="#f2f2f2"/>
          <path id="path3500" d="M1303.709-281.539a5.135,5.135,0,0,1-1.427-2.855h0a6.754,6.754,0,0,1,1.427,2.855h0" fill="#f2f2f2"/>
          <path id="path3502" d="M1298.713-291.77a5.134,5.134,0,0,1-1.427-2.855h0a6.755,6.755,0,0,1,1.427,2.855h0" fill="#f2f2f2"/>
          <path id="path3504" d="M1293.956-301.287a1.467,1.467,0,0,1-.713-1.191h0a1.477,1.477,0,0,1,.713,1.191h0" fill="#f2f2f2"/>
          <path id="path3506" d="M1349.157-187.321h-.24c-.627-1.788-1.64-3.385-2.427-5.1a2.859,2.859,0,0,1-.44-1.209.354.354,0,0,1,.013-.116,49.913,49.913,0,0,1,2.413,4.607c.213.376.453.736.68,1.1h0v.712h0" fill="#f3f3f3"/>
          <path id="path3508" d="M1345.823-194.221a13.513,13.513,0,0,1-1.667-3.332h0a6.877,6.877,0,0,1,1.667,3.332h0" fill="#f3f3f3"/>
          <path id="path3510" d="M1370.81-143.068c-1.84-3.164-3.347-6.492-4.96-9.764a.5.5,0,0,1-.04-.247v-.22h0c1.827,3.163,3.333,6.492,4.947,9.765a.468.468,0,0,1,.04.239v.145a.174.174,0,0,0,.013.081h0" fill="#f3f3f3"/>
          <path id="path3512" d="M1390.783-102.145c-1.52-2.521-2.653-5.241-4.04-7.84a3.519,3.519,0,0,0-.707-1.2h0c0-.237-.013-.475-.013-.712h0a71.953,71.953,0,0,1,4.76,9.754h0" fill="#f3f3f3"/>
          <path id="path3514" d="M1385.8-112.374a73.852,73.852,0,0,1-4.76-9.755h0a73.4,73.4,0,0,1,4.76,9.755h0" fill="#f3f3f3"/>
          <path id="path3516" d="M1375.8-132.836a75.634,75.634,0,0,1-4.76-9.755h0a73.492,73.492,0,0,1,4.76,9.755h0" fill="#f3f3f3"/>
          <path id="path3518" d="M1355.81-173.76a75.553,75.553,0,0,1-4.76-9.755h0a73.588,73.588,0,0,1,4.76,9.755h0" fill="#f3f3f3"/>
          <path id="path3520" d="M1379.37-125.46a36.988,36.988,0,0,1-3.333-6.9h0a53.846,53.846,0,0,1,3.333,6.658v.242" fill="#f3f3f3"/>
          <path id="path3522" d="M1350.823-183.988l-.24,0h0c-.48-1.111-.96-2.221-1.427-3.332h0a6.874,6.874,0,0,1,1.667,3.335h0" fill="#f3f3f3"/>
          <path id="path3524" d="M1380.8-122.6a9.981,9.981,0,0,1-1.427-2.855h0v-.242a7.828,7.828,0,0,1,1.427,3.1h0" fill="#f3f3f3"/>
          <path id="path3526" d="M1404.117-74.784c-1.827-3.168-3.373-6.476-4.96-9.764a.723.723,0,0,1-.04-.247v-.221h0c1.613,2.676,2.813,5.559,4.28,8.311a3.375,3.375,0,0,0,.72,1.209v.712h0" fill="#f4f4f4"/>
          <path id="path3528" d="M1399.117-85.016c-1.827-3.167-3.373-6.475-4.96-9.763a.727.727,0,0,1-.04-.247c0-.045.013-.092.013-.137,0-.028-.013-.056-.013-.083h0c1.84,3.163,3.346,6.492,4.96,9.764a.5.5,0,0,1,.04.246v.219h0" fill="#f4f4f4"/>
          <path id="path3530" d="M1404.823-73.119a2.432,2.432,0,0,1-.707-1.665h0a2.432,2.432,0,0,1,.707,1.665h0" fill="#f4f4f4"/>
        </g>
      </g>
    </g>
  </g>
</svg>
