<svg xmlns="http://www.w3.org/2000/svg" width="130.885" height="171.693" viewBox="0 0 130.885 171.693">
  <g id="noun_alien_1771320" transform="translate(-14.012 -3)">
    <g id="Group_11" data-name="Group 11" transform="translate(14.012 3)">
      <path id="Path_15" data-name="Path 15" d="M129.191,59.017a16.814,16.814,0,0,0,5.168-4.543c2.161-2.531,5.23-3.466,8.114-4.682,1.381-.582,1.907-.019,2.235,1.647.615,3.125-.418,6.081-1.086,9.016-1.743,7.652-5.176,14.686-8.858,21.538-1.714,3.19-4.327,5.909-6.627,8.765a5.476,5.476,0,0,0-1.109,2.557c-.94,5.082-2.648,9.968-3.81,14.989a44.547,44.547,0,0,1-4.483,10.721c-3.591,6.769-7.708,13.257-11.485,19.93A59.762,59.762,0,0,1,99.5,149.647a5.511,5.511,0,0,0-1.458,4.317,111,111,0,0,0,1.82,13.449,18.261,18.261,0,0,0,1.041,2.628c.394,1.085.771,2.179,1.082,3.29a1.006,1.006,0,0,1-.611,1.295c-.65.246-1.03-.225-1.164-.716-.857-3.126-2.477-6-2.643-9.37-.155-3.141-.71-6.264-1.134-9.389-.2-1.453-.625-1.7-1.827-.878-1.906,1.3-3.837,2.528-5.826,3.707-4.189,2.483-8.484,2.059-12.854,1.08-2.351-.527-4.7-1.186-6.5-3.227A4.709,4.709,0,0,0,68.8,159.4c.241,4.592-1.18,8.962-1.7,13.451-.064.555-.237,1.41-1.093,1.216-.756-.171-.737-1-.645-1.573q.772-4.827,1.673-9.634a20.134,20.134,0,0,0-.344-7.519c-.309-1.641-1.662-2.65-3.023-3.441A37.461,37.461,0,0,1,52.7,142.609a66.673,66.673,0,0,1-6.354-9.747c-2.417-4.55-4.893-9.094-6.9-13.828a82.558,82.558,0,0,1-4.826-14.994c-.81-3.81-2.5-7.369-2.943-11.264-.154-1.363-1.175-2.179-2.112-3.025A50.767,50.767,0,0,1,17.406,72.665,38.816,38.816,0,0,1,14.025,58.3c-.152-3.437.949-4.328,4.109-3.079a27.77,27.77,0,0,1,10.037,6.364c.577.6,1.206,1.145,1.917,1.814.85-.627.748-1.516.941-2.267A75.467,75.467,0,0,1,35.787,46.8a20.73,20.73,0,0,1,3.4-4.9c1.761-1.939,3.271-4.1,4.936-6.133a1.646,1.646,0,0,0,.008-2.261A154.757,154.757,0,0,0,33.692,20.5a1.756,1.756,0,0,0-2.14-.63,8.851,8.851,0,0,1-4.983-.362,6.346,6.346,0,0,1-4.249-7.475,7.708,7.708,0,0,1,6.227-6.317c2.063-.488,3.925.594,5.244,2.248a8.621,8.621,0,0,1,1.644,8.615,3.291,3.291,0,0,0,.648,3.7c3.211,3.883,6.7,7.547,9.4,11.836.728,1.155,1.639,1.154,2.6.244a45.255,45.255,0,0,1,3.719-3.4c10.148-7.675,21.511-10.529,34.136-9.166,4.5.486,8.941,1.17,13.385,1.989a17.8,17.8,0,0,1,6.158,2.323c3.923,2.422,7.971,4.686,11.1,8.25,2,2.277,2.44,2.126,4.287-.331,2.9-3.857,5.765-7.741,8.693-11.578a1.776,1.776,0,0,0,.212-2.469c-2.192-3.238-1.3-6.612-.07-9.893a9.517,9.517,0,0,1,2.992-3.633c1.662-1.429,3.31-2.023,5.672-.742,3.973,2.155,5.787,4.677,5.053,8.933-.8,4.656-3.608,7.076-7.553,7.813a1.788,1.788,0,0,1-.933.055c-2.155-.938-3.442.491-4.512,1.857-3.178,4.057-6.2,8.237-9.307,12.349a1.8,1.8,0,0,0-.2,2.295,57.082,57.082,0,0,1,7.5,19.963A13.718,13.718,0,0,0,129.191,59.017ZM82.327,21.589c-9.9-1.014-18.4,1.654-26.3,6.474-3.233,1.972-5.859,4.768-8.792,7.152C45,37.034,43.67,39.621,41.712,41.67A25.452,25.452,0,0,0,37.3,48.433c-.974,2.022-1.231,4.2-2.126,6.232a50.152,50.152,0,0,0-3.734,14.926c-.789,7.377.414,14.661,2.09,21.848q1.575,6.755,3.31,13.472a77.324,77.324,0,0,0,5,13.928c1.942,4.061,3.834,8.144,5.822,12.185,3.545,7.207,8.142,13.443,14.964,17.851a29.35,29.35,0,0,1,2.549,1.825,36.844,36.844,0,0,0,8.068,5.444c6.279,2.747,12.495,2.451,18.2-1.676a51.841,51.841,0,0,0,15.071-17.114c3.155-5.692,6.188-11.456,9.493-17.059a62.637,62.637,0,0,0,4.439-9.36,85.387,85.387,0,0,0,4.962-18.873,185.482,185.482,0,0,0,2.044-26.7,52.666,52.666,0,0,0-6.972-25.237c-3.378-6.117-8.853-10.3-14.842-13.769a24.054,24.054,0,0,0-6.974-2.831C93.111,22.314,87.567,21.069,82.327,21.589Zm46.478,65.733c1.263-1.639,2.52-3.283,3.79-4.917,1.44-1.854,2.1-4.1,3.13-6.164,3.239-6.5,5.994-13.172,7-20.435.181-1.3,1.087-3-.309-3.779-1.142-.638-2.562.463-3.677,1.183-3.382,2.181-5.992,5.212-8.619,8.189-1.309,1.484-.766,3.248-.442,5.06a8.062,8.062,0,0,0,1.2-.425c.925-.553,1.9-1.151,2.91-.377,1.11.851.873,2.1.455,3.184-1.276,3.317-2.424,6.721-4.958,9.367a2.583,2.583,0,0,0-.759,1.652C128.308,82.251,127.958,84.638,128.806,87.322ZM29.07,69.487c1.206-1.614.887-3.014-.351-4.494a23.832,23.832,0,0,0-9.824-7.172c-2.3-.884-2.552-.731-2.728,1.618a17.568,17.568,0,0,0,.314,4.707c1.341,6.9,4.926,12.676,8.992,18.222a17.281,17.281,0,0,0,4.647,4.865c.405-1.529-.059-2.732-.093-3.936a10.947,10.947,0,0,0-3.358-7.9,26.041,26.041,0,0,1-3.489-4.861c-.593-.946-1.314-2.181-.068-3.1a2.788,2.788,0,0,1,3.524.076C27.459,68.134,27.85,69.279,29.07,69.487ZM130.568,12.5c-.262,4.944,3.254,7.28,7.466,5.456,2.489-1.078,3.158-3.32,3.671-5.544.638-2.76-1.3-6.192-3.568-6.566-4.259-.7-6.366.977-7.3,4.53A13.491,13.491,0,0,0,130.568,12.5ZM34.246,13.742c0-2.715-2.348-6.153-4.12-6.034-3.267.22-6.3,2.861-6.212,5.4.089,2.48,2.834,4.911,5.611,4.969A4.325,4.325,0,0,0,34.246,13.742Z" transform="translate(-14.012 -3)" fill="#f04c24"/>
      <path id="Path_16" data-name="Path 16" d="M59.454,76.979a19.514,19.514,0,0,1-3.038,11.813,6.276,6.276,0,0,1-2.2,2.2c-2.765,1.537-4.865.863-6.083-2.064a18.43,18.43,0,0,1-1.176-10.74c.46-2.509.873-4.861,2.344-7A8.354,8.354,0,0,1,54.21,68c1.925-.553,4.4,1.242,4.815,3.458A24.682,24.682,0,0,1,59.454,76.979Z" transform="translate(12.241 49.229)" fill="#f04c24"/>
      <path id="Path_17" data-name="Path 17" d="M38.591,37.952a3.628,3.628,0,0,1,1.767-2.185,48.268,48.268,0,0,1,16.486-8.278,18.048,18.048,0,0,1,12.011.87,56.665,56.665,0,0,1,7.791,4.068c1.8,1.153,2.868,3,4.675,4.122.8.5.092,1.33-.586,1.7a44.466,44.466,0,0,1-4.468,2.307A47.558,47.558,0,0,1,61.1,44.514a18.25,18.25,0,0,1-8.344-1.082C48.114,41.514,43.388,39.8,38.591,37.952Zm4.028-.37c3.319,1.306,6.517,2.546,9.7,3.823,2.251.9,4.506,1.88,6.981,1.719,6.013-.393,11.877-1.456,17.283-4.309,2.427-1.281,2.486-1.837.427-3.833A26.234,26.234,0,0,0,65.43,28.834c-6.593-1.8-12.655.571-18.15,4.177A13.517,13.517,0,0,0,42.62,37.582Z" transform="translate(5.768 16.195)" fill="#f04c24"/>
      <path id="Path_18" data-name="Path 18" d="M61.366,56.081a2.241,2.241,0,0,1-1.53,1.136,82.6,82.6,0,0,1-10.077,2.341c-5.381.632-9.814-1.826-13.521-5.483-2.307-2.276-4.294-4.88-6.393-7.363-1.441-1.7-1.226-2.932.845-3.856a15.338,15.338,0,0,1,8.575-1.581A84.222,84.222,0,0,1,49.7,43.552a13.6,13.6,0,0,1,7.4,5.608A65.648,65.648,0,0,1,61.366,56.081ZM38.849,42.922a14.4,14.4,0,0,0-6.14,1.2c-.966.491-1.591,1.1-.715,2.191,2.691,3.347,5.255,6.887,8.989,9.128,2.868,1.721,5.974,3.271,9.529,2.563,2.367-.471,4.684-1.188,7.027-1.782,1.06-.269,1.385-.856.846-1.84-2.156-3.937-4.758-7.515-9.106-9.191A36.892,36.892,0,0,0,38.849,42.922Z" transform="translate(-2.014 27.697)" fill="#f04c24"/>
      <path id="Path_19" data-name="Path 19" d="M59.766,60.056c-.21.013-.421.021-.63.041-4.4.425-4.743.8-3.315-4.391A20.907,20.907,0,0,1,74.264,40.8a11.709,11.709,0,0,1,5.476,1.281c1.309.538,1.646,1.9.941,3.5a25.294,25.294,0,0,1-6.3,8.962C69.763,58.627,66.464,59.813,59.766,60.056Zm1.354-1.708a8.783,8.783,0,0,0,3.68-.359A20.542,20.542,0,0,0,78.111,47.222c1.7-3.166,1.4-4.025-2.285-4.322-8.443-.681-14.811,3.894-17.591,11.858C56.813,58.832,57.878,58.713,61.12,58.349Z" transform="translate(19.027 27.399)" fill="#f04c24"/>
      <path id="Path_20" data-name="Path 20" d="M45.088,63.864a19.958,19.958,0,0,1,.539-2.082,1.666,1.666,0,0,1,2.164-1.257,1.831,1.831,0,0,1,1.27,2.448,4.107,4.107,0,0,1-1.466,2.318,1.762,1.762,0,0,1-1.721.479C45.058,65.449,45.111,64.627,45.088,63.864Z" transform="translate(10.996 43.214)" fill="#f04c24"/>
      <path id="Path_21" data-name="Path 21" d="M54.407,60.58a1.889,1.889,0,0,1,1.556,2.07c.038,1.013-.395,1.908-1.542,1.987-1.038.071-1.448-.7-1.475-1.621A2.23,2.23,0,0,1,54.407,60.58Z" transform="translate(17.318 43.336)" fill="#f04c24"/>
      <path id="Path_22" data-name="Path 22" d="M49.117,34.9a33.075,33.075,0,0,1,.417-3.377,2.609,2.609,0,0,1,2.017-2.156c2.458-.632,3.527.024,3.922,2.56a8.276,8.276,0,0,1-1.468,5.658,3.234,3.234,0,0,1-3.555,1.521c-1.44-.336-1.186-1.783-1.326-2.889A10.981,10.981,0,0,1,49.117,34.9Z" transform="translate(14.224 18.039)" fill="#f04c24"/>
      <path id="Path_23" data-name="Path 23" d="M41.6,47.009c.011,2.7-1.3,4.431-3.334,4.406a2.3,2.3,0,0,1-2.454-2.567c0-1.894,2.066-4.359,3.722-4.443C40.657,44.348,41.6,45.532,41.6,47.009Z" transform="translate(3.534 30.317)" fill="#f04c24"/>
      <path id="Path_24" data-name="Path 24" d="M61.229,47.709c-.02-1.713,1.1-3.348,2.226-3.255a3.833,3.833,0,0,1,3.159,3.388c-.04,1.679-1.321,3.355-2.632,3.445C62.6,51.382,61.251,49.627,61.229,47.709Z" transform="translate(23.985 30.355)" fill="#f04c24"/>
    </g>
  </g>
</svg>
